<svg width="522" height="363" viewBox="0 0 522 363" fill="none" xmlns="http://www.w3.org/2000/svg">
<path d="M5 2C5 9.57694 3.47516 16.5424 2.44444 24C1.4684 31.0619 2 38.4421 2 45.5556C2 63.9956 1.03532 82.7142 2.22222 101.111C3.19203 116.143 6.14184 130.674 8.22222 145.444C9.74762 156.275 8.86322 167.767 11.1111 178.444C12.7754 186.35 15.149 193.95 16.5 202.056C18.4182 213.565 17.6457 227.321 16.5 238.778C16.0906 242.872 16 246.892 16 251C16 253.778 14.9372 252.752 14.1111 254.611C13.522 255.937 14.7013 259.344 12.5 259.833C10.4255 260.294 8.24712 256.565 8 255C7.65549 252.818 5.94317 252.004 6 249.333C6.16495 241.58 9.08332 234.161 10.7778 226.667C12.1727 220.497 11.0922 210.435 14.4444 204.778C16.6242 201.099 15.8391 197.407 16 193.222C16.1014 190.586 17.8282 186.9 19 184.667C21.5046 179.892 23.4018 174.314 25.2778 169.222C34.723 143.585 42.4831 116.693 49.6111 90.2778C52.5979 79.2092 55.9714 67.9515 59.5555 57.0556C61.7878 50.2695 63.532 41.4783 66.9444 35.2222C67.452 34.2916 69.0178 30.8822 68.8889 31.3333C66.1717 40.8434 62.5236 49.9341 60.5 59.6667C57.5924 73.651 52.8066 87.1498 48.0555 100.611C46.6369 104.631 44.5918 108.381 43.1667 112.389C42.0186 115.618 42.1812 119.168 40.5555 122.222C39.0128 125.121 36.8542 130.531 34.2222 132.556C33.0638 133.447 30.9932 134.134 30.2222 135.444C29.2568 137.086 27.8902 138.134 28 140C28.1369 142.327 34.9355 145.294 36.4444 146.222C44.9647 151.465 52.2456 158.415 60.5555 164C65.1917 167.116 69.6995 170.399 73.7778 174.222C76.6579 176.922 79.3087 178.566 83 180C88.6336 182.188 92.4045 185.403 96.9444 189.333C108.67 199.484 120.386 210.287 130.167 222.389C138.005 232.087 143.718 240.727 154.056 248.111C162.771 254.336 174.096 266.86 186 265.944C193.531 265.365 197.437 256.104 199.444 249.944C204.043 235.833 205.911 220.214 204.333 205.444C201.753 181.288 190.193 150.374 164.667 142.889C158.195 140.991 144.488 135.46 143.222 145.444C142.371 152.161 143 159.24 143 166C143 169.121 142.388 172.943 143.222 176C145.302 183.626 160.909 186.015 167 188.222C171.477 189.844 173.901 189.952 178.556 189.222C181.834 188.708 183.429 186.877 186.111 186.111C194.571 183.694 196 170.885 196 163C196 157.379 193.651 145.151 201.056 153.667C204.127 157.199 205.703 161.977 207.611 166.167C211.29 174.243 215.708 181.824 219.944 189.611C226.316 201.324 229.607 213.681 235 225.667C239.171 234.935 245.639 246 257 246C270.914 246 274 231.866 274 220C274 206.046 273 192.144 273 178.222C273 160.924 289.161 170.451 296.778 177.778C302.545 183.325 308.068 188.546 312.778 195C317.491 201.459 317.423 193.218 318.111 188.5C319.926 176.057 320.84 161.843 325.5 150.056C328.975 141.267 336.933 147.965 340 153.056C346.085 163.156 350.853 175.784 354.278 187.111C356.438 194.257 355 188.97 355 183.667C355 174.721 353.693 164.642 355.111 155.778C356.005 150.191 362.67 163.673 362.889 164.167C367.715 175.024 371.206 186.671 375.444 197.778C377.434 202.991 379.843 207.853 382.333 212.833C383.965 216.097 383.917 219.456 385.222 222.556C385.441 223.076 386.914 218.802 387.556 218C388.891 216.331 386.924 216.122 386.222 215C385.294 213.514 384.171 214.597 383 213.556C381.059 211.831 381.134 210.826 380.556 208.333C376.173 189.432 376.035 168.815 373.778 149.556C371.621 131.151 369.627 113.364 368.778 94.8889C368.688 92.9372 365.701 78.3272 370.444 79.2222C374.224 79.9354 377.236 83.2848 379.222 86.3333C387.489 99.0203 391.715 115.069 395.222 129.611C400.785 152.674 406.528 176.436 409.389 200C411.987 221.399 410.9 243.143 414.056 264.444C415.001 270.825 419.347 289.604 418.944 283.167C417.873 266.021 417 249.029 417 231.833C417 225.888 414.579 213.354 418.111 208.056C419.343 206.207 421.96 207.908 423.5 208.5C431.132 211.436 429.142 198.073 434 196.222C438.792 194.397 445.445 207.723 447 210.444C448.731 213.474 450.613 221.196 453.444 223.556C454.597 224.516 454.941 220.832 455 219.333C455.25 213.033 455.999 206.894 457 200.667C458.408 191.908 459 183.504 459 174.667C459 168.916 458.989 185.617 459 186.556C459.08 193.238 461 199.612 461 206.222C461 214.074 458.882 190.662 457.778 182.889C454.685 161.105 450.151 139.805 442.278 119.333C439.772 112.818 447.328 129.609 447.667 130.333C451.365 138.246 454.494 146.242 457.333 154.5C458.939 159.172 460.339 164.58 463.444 168.556C468.275 174.739 473.651 153.956 475 151.333C478.532 144.466 483.179 135.81 489.556 131.111C492.925 128.628 496.744 130.099 499 133C499.762 133.98 502.239 138.081 503.056 135.222C503.989 131.955 504.342 128.823 505.056 125.611C505.391 124.102 507.423 127.676 508.222 129C512.904 136.755 515.583 144.706 517.444 153.556C521.261 171.702 521.983 186.638 513.111 203.333C493.34 240.54 462.002 270.879 426.778 293.556C365.565 332.963 298.794 356.748 225.889 360.667C201.479 361.979 174.113 361.785 153.111 347.222C140.222 338.285 131.465 322.849 134.778 306.889C138.718 287.905 156.866 271.784 171.889 261.333C192.824 246.769 216.67 240.863 241.444 236.778C291.262 228.564 347.744 229.346 391.889 201.333C408.674 190.682 421.136 174.631 431.889 158.222C442.607 141.866 453.092 123.661 458.333 104.667C460.836 95.5977 462.51 81.6517 456.667 73.2222C454.132 69.5652 449.433 67.6358 445.222 67.1111C429.274 65.1236 411.624 70.2909 396.833 75.1111C305.749 104.795 223.335 156.276 141.833 205.333C116.534 220.562 91.2208 235.77 65.8889 250.944C56.8187 256.378 46.7262 261.334 38.4444 268C17.7723 284.639 85.5825 243.529 108.278 229.778C166.714 194.37 229.264 165.248 294.611 145.056C329.781 134.188 365.454 125.671 401.111 116.667C407.436 115.07 426.856 113 420.333 113C415.262 113 412.411 104.923 409 102" stroke="black" stroke-width="3" stroke-linecap="round"/>
</svg>
